<svg width="25" height="25" viewBox="0 0 25 25" fill="none" xmlns="http://www.w3.org/2000/svg">
<circle cx="12.5" cy="12.5" r="12.5" fill="#0075CF"/>
<path d="M10.625 7.5C9.96196 7.5 9.32607 7.76339 8.85723 8.23223C8.38839 8.70107 8.125 9.33696 8.125 10C8.125 10.663 8.38839 11.2989 8.85723 11.7678C9.32607 12.2366 9.96196 12.5 10.625 12.5C11.288 12.5 11.9239 12.2366 12.3928 11.7678C12.8616 11.2989 13.125 10.663 13.125 10C13.125 9.33696 12.8616 8.70107 12.3928 8.23223C11.9239 7.76339 11.288 7.5 10.625 7.5Z" fill="white"/>
<path d="M11.25 13.125H10C8.275 13.125 6.875 14.525 6.875 16.25V16.875C6.875 17.2188 7.15625 17.5 7.5 17.5H13.75C14.0938 17.5 14.375 17.2188 14.375 16.875V16.25C14.375 14.525 12.975 13.125 11.25 13.125Z" fill="white"/>
<path d="M14.375 7.5C14.0812 7.5 13.8125 7.55625 13.5562 7.6375C14.0687 8.275 14.375 9.09375 14.375 10C14.375 10.9062 14.0687 11.7188 13.5562 12.3625C13.8125 12.4437 14.0812 12.5 14.375 12.5C15.8 12.5 16.875 11.425 16.875 10C16.875 8.575 15.8 7.5 14.375 7.5Z" fill="white"/>
<path d="M15 13.125H14.3062C15.1187 13.9188 15.625 15.025 15.625 16.25V16.875C15.625 17.0938 15.5812 17.3063 15.5125 17.5H17.5C17.8437 17.5 18.125 17.2188 18.125 16.875V16.25C18.125 14.525 16.725 13.125 15 13.125Z" fill="white"/>
</svg>
