<svg width="16" height="16" viewBox="0 0 16 16" fill="none" xmlns="http://www.w3.org/2000/svg">
<path d="M8 1.33325C4.32666 1.33325 1.33333 4.32659 1.33333 7.99992C1.33333 11.6733 4.32666 14.6666 8 14.6666C11.6733 14.6666 14.6667 11.6733 14.6667 7.99992C14.6667 4.32659 11.6733 1.33325 8 1.33325ZM8 4.66659C9.15333 4.66659 10 5.51325 10 6.66659C10 7.81992 9.15333 8.66659 8 8.66659C6.84666 8.66659 6 7.81992 6 6.66659C6 5.51325 6.84666 4.66659 8 4.66659ZM8 13.3333C6.64131 13.3331 5.33418 12.8131 4.34666 11.8799C4.88666 10.7733 6.02 9.99992 7.33333 9.99992H8.66666C9.97999 9.99992 11.1067 10.7733 11.6467 11.8799C10.6623 12.8139 9.3569 13.3341 8 13.3333Z" fill="#F7941C"/>
</svg>
