<svg width="16" height="16" viewBox="0 0 16 16" fill="none" xmlns="http://www.w3.org/2000/svg">
<path d="M10.5 6C11.3284 6 12 5.32842 12 4.5C12 3.67157 11.3284 3 10.5 3C9.67158 3 9 3.67157 9 4.5C9 5.32842 9.67158 6 10.5 6Z" stroke="#666666" stroke-linejoin="round"/>
<path d="M4.5 10C5.32842 10 6 9.32842 6 8.5C6 7.67158 5.32842 7 4.5 7C3.67158 7 3 7.67158 3 8.5C3 9.32842 3.67158 10 4.5 10Z" stroke="#666666" stroke-linejoin="round"/>
<path d="M10.5 11C11.3284 11 12 11.6716 12 12.5C12 13.3284 11.3284 14 10.5 14C9.67158 14 9 13.3284 9 12.5C9 11.6716 9.67158 11 10.5 11Z" stroke="#666666" stroke-linejoin="round"/>
<line x1="0.5" y1="-0.5" x2="3.63982" y2="-0.5" transform="matrix(0.856369 -0.516365 0.512629 0.85861 5.71484 8.1377)" stroke="#666666" stroke-linecap="square"/>
<line x1="0.5" y1="-0.5" x2="3.63951" y2="-0.5" transform="matrix(-0.864953 -0.501853 0.49815 -0.867091 9.27734 10.958)" stroke="#666666" stroke-linecap="square"/>
</svg>
