<svg width="16" height="16" viewBox="0 0 16 16" fill="none" xmlns="http://www.w3.org/2000/svg">
<path d="M8.86027 12.2071C8.86027 12.2071 12.3399 8.62832 13.2098 7.73362C14.0797 6.83889 14.5147 4.60214 12.9923 3.03639C11.47 1.47066 9.29523 1.91801 8.42529 2.81272C7.55539 3.70741 2.98837 8.40464 2.55341 8.85199C2.11846 9.29934 1.46602 10.8651 2.77089 12.2071C4.07575 13.5492 5.59811 12.8782 6.03306 12.4308C6.46801 11.9835 11.2525 7.06256 11.6875 6.61521C12.1224 6.16787 12.3399 5.04949 11.6875 4.37847C11.035 3.70741 9.94765 3.93109 9.5127 4.37847C9.07775 4.82582 5.38064 8.62832 5.38064 8.62832" stroke="#666666" stroke-linecap="round" stroke-linejoin="round"/>
</svg>
