<svg width="23" height="30" viewBox="0 0 23 30" fill="none" xmlns="http://www.w3.org/2000/svg">
<circle cx="10" cy="6" r="4" fill="#F7941C"/>
<path d="M22.0735 28.4672V17.2624C22.0735 16.0517 21.5423 15.2611 20.4057 15.0634C19.5533 14.9152 19.0221 15.3723 18.8491 16.0147V14.8719C18.8491 13.7416 17.9288 12.8212 16.7984 12.8212C16.1313 12.8212 15.6001 13.0189 15.4086 13.6366C15.4086 12.8706 15.2727 11.9379 13.7656 11.7156C12.3573 11.5117 11.9434 12.7409 11.8199 13.1301V7.59559C11.8199 6.54552 10.9675 5.69312 9.91739 5.69312C8.86733 5.69312 8.01492 6.54552 8.01492 7.59559V22.173L4.69176 18.4545C3.85171 17.6145 2.4928 17.6145 1.65275 18.4545C0.812692 19.2946 0.812692 20.6535 1.65275 21.4935L8.70055 28.9305" fill="white"/>
<path d="M22.0735 28.4672V17.2624C22.0735 16.0517 21.5423 15.2611 20.4057 15.0634C19.5533 14.9152 19.0221 15.3723 18.8491 16.0147V14.8719C18.8491 13.7416 17.9288 12.8212 16.7984 12.8212C16.1313 12.8212 15.6001 13.0189 15.4086 13.6366C15.4086 12.8706 15.2727 11.9379 13.7656 11.7156C12.3573 11.5117 11.9434 12.7409 11.8199 13.1301V7.59559C11.8199 6.54552 10.9675 5.69312 9.91739 5.69312C8.86733 5.69312 8.01492 6.54552 8.01492 7.59559V22.173L4.69176 18.4545C3.85171 17.6145 2.4928 17.6145 1.65275 18.4545C0.812692 19.2946 0.812692 20.6535 1.65275 21.4935L8.70055 28.9305" stroke="#2B2B2B" stroke-width="1.85306" stroke-linecap="round" stroke-linejoin="round"/>
<path d="M11.8137 13.1301V15.1005" stroke="#2B2B2B" stroke-width="1.85306" stroke-linecap="round" stroke-linejoin="round"/>
<path d="M15.4025 13.6365V15.7798" stroke="#2B2B2B" stroke-width="1.85306" stroke-linecap="round" stroke-linejoin="round"/>
<path d="M18.843 16.0088V16.7685" stroke="#2B2B2B" stroke-width="1.85306" stroke-linecap="round" stroke-linejoin="round"/>
</svg>
