<svg width="252" height="35" viewBox="0 0 252 35" fill="none" xmlns="http://www.w3.org/2000/svg">
<g clip-path="url(#clip0_5417_1600)">
<path d="M145.624 30.8312H142.984V12.0579H145.624V30.8312ZM136.971 12.5712C136.971 15.2601 136.735 17.8023 136.262 20.1979L141.86 28.1668L139.709 29.7801L135.358 23.4246C134.657 25.4127 133.761 26.9609 132.669 28.069C131.593 29.1609 130.363 29.7394 128.978 29.8046V26.969C130.053 26.806 130.982 26.0809 131.764 24.7935C132.563 23.4898 133.174 21.7705 133.598 19.6357C134.038 17.5009 134.266 15.1135 134.282 12.4735L136.971 12.5712ZM148.066 15.5535V13.4512H152.809V11.7157H155.497V13.4512H160.24V15.5535H148.066ZM165.104 23.2046H162.464V19.929H160.02V17.4846H162.464V12.0579H165.104V23.2046ZM154.153 23.1557C152.637 23.1557 151.374 22.8542 150.364 22.2512C149.37 21.6483 148.873 20.8172 148.873 19.7579C148.873 18.6986 149.37 17.8594 150.364 17.2401C151.374 16.6209 152.637 16.3112 154.153 16.3112C155.669 16.3112 156.923 16.6209 157.917 17.2401C158.928 17.8594 159.433 18.6986 159.433 19.7579C159.433 20.8172 158.928 21.6483 157.917 22.2512C156.923 22.8542 155.669 23.1557 154.153 23.1557ZM154.153 18.3157C153.306 18.3157 152.629 18.4542 152.124 18.7312C151.635 18.992 151.391 19.3342 151.391 19.7579C151.391 20.1653 151.635 20.5075 152.124 20.7846C152.629 21.0453 153.306 21.1757 154.153 21.1757C155 21.1757 155.677 21.0453 156.182 20.7846C156.687 20.5075 156.94 20.1653 156.94 19.7579C156.94 19.3342 156.687 18.992 156.182 18.7312C155.677 18.4542 155 18.3157 154.153 18.3157ZM165.055 24.109V30.6846H149.606V24.109H165.055ZM162.44 28.509V26.2846H152.222V28.509H162.44ZM170.113 23.3023C169.575 23.3023 169.127 23.1312 168.768 22.789C168.426 22.4305 168.255 21.9742 168.255 21.4201C168.255 20.8823 168.426 20.4423 168.768 20.1001C169.127 19.7579 169.575 19.5868 170.113 19.5868C170.65 19.5868 171.09 19.7579 171.433 20.1001C171.791 20.4423 171.97 20.8823 171.97 21.4201C171.97 21.9742 171.791 22.4305 171.433 22.789C171.09 23.1312 170.65 23.3023 170.113 23.3023ZM188.488 25.9912V12.0579H191.128V25.9912H188.488ZM180.031 12.1801C181.171 12.1801 182.174 12.4164 183.037 12.889C183.917 13.3453 184.594 13.9972 185.066 14.8446C185.539 15.6757 185.775 16.629 185.775 17.7046C185.775 18.7801 185.539 19.7416 185.066 20.589C184.594 21.4201 183.917 22.072 183.037 22.5446C182.174 23.0009 181.171 23.229 180.031 23.229C178.89 23.229 177.879 23.0009 176.999 22.5446C176.136 22.072 175.468 21.4201 174.995 20.589C174.522 19.7416 174.286 18.7801 174.286 17.7046C174.286 16.629 174.522 15.6757 174.995 14.8446C175.468 13.9972 176.136 13.3453 176.999 12.889C177.879 12.4164 178.89 12.1801 180.031 12.1801ZM180.031 14.5268C179.118 14.5268 178.376 14.812 177.806 15.3823C177.236 15.9364 176.951 16.7105 176.951 17.7046C176.951 18.6986 177.236 19.4809 177.806 20.0512C178.376 20.6216 179.118 20.9068 180.031 20.9068C180.959 20.9068 181.709 20.6216 182.279 20.0512C182.85 19.4809 183.135 18.6986 183.135 17.7046C183.135 16.7105 182.85 15.9364 182.279 15.3823C181.709 14.812 180.959 14.5268 180.031 14.5268ZM191.519 28.1912V30.6846H175.875V24.3779H178.564V28.1912H191.519ZM202.101 17.1179C201.205 17.786 200.081 18.3075 198.728 18.6823C197.392 19.0409 195.974 19.2364 194.475 19.269V17.069C195.974 17.0364 197.375 16.7838 198.679 16.3112C199.999 15.8223 200.855 15.1786 201.246 14.3801H194.719V12.2046H210.364V14.3801H204.155C204.138 14.706 204.032 15.032 203.837 15.3579L210.828 17.2157L210.192 19.3423L202.101 17.1179ZM211.488 22.6179H193.57V20.4423H211.488V22.6179ZM202.541 23.9379C204.986 23.9379 206.925 24.2149 208.359 24.769C209.793 25.3068 210.51 26.1949 210.51 27.4335C210.51 28.672 209.785 29.5683 208.335 30.1223C206.901 30.6764 204.969 30.9535 202.541 30.9535C200.113 30.9535 198.174 30.6764 196.724 30.1223C195.289 29.5683 194.572 28.672 194.572 27.4335C194.572 26.1949 195.289 25.3068 196.724 24.769C198.158 24.2149 200.097 23.9379 202.541 23.9379ZM202.541 28.8268C204.073 28.8268 205.312 28.7209 206.257 28.509C207.202 28.2809 207.675 27.9223 207.675 27.4335C207.675 26.9446 207.202 26.5942 206.257 26.3823C205.328 26.1705 204.089 26.0646 202.541 26.0646C199.103 26.0646 197.384 26.5209 197.384 27.4335C197.384 27.9223 197.856 28.2809 198.801 28.509C199.747 28.7209 200.993 28.8268 202.541 28.8268ZM225.125 20.149V17.9001H227.35V16.1401H225.125V13.8912H227.35V12.0579H229.965V22.8623H227.35V20.149H225.125ZM224.857 21.5668C224.351 21.7623 223.642 21.9172 222.73 22.0312C221.817 22.129 220.799 22.1779 219.674 22.1779H213.074V19.9535H214.908V14.6735H213.148V12.4246H224.49V14.6735H222.681V19.8312C223.496 19.7498 224.221 19.5949 224.857 19.3668V21.5668ZM220.163 19.929V14.6735H217.45V19.9535H218.452L220.163 19.929ZM222.217 23.3268C224.596 23.3268 226.502 23.6364 227.937 24.2557C229.387 24.8586 230.112 25.812 230.112 27.1157C230.112 28.4357 229.395 29.3972 227.961 30.0001C226.527 30.6194 224.612 30.929 222.217 30.929C219.837 30.929 217.931 30.6194 216.497 30.0001C215.062 29.3972 214.345 28.4357 214.345 27.1157C214.345 25.812 215.062 24.8586 216.497 24.2557C217.931 23.6364 219.837 23.3268 222.217 23.3268ZM222.217 28.7046C223.748 28.7046 224.971 28.5742 225.883 28.3135C226.812 28.0527 227.277 27.6535 227.277 27.1157C227.277 26.5942 226.812 26.2031 225.883 25.9423C224.954 25.6816 223.732 25.5512 222.217 25.5512C220.717 25.5512 219.503 25.6816 218.574 25.9423C217.645 26.2031 217.181 26.5942 217.181 27.1157C217.181 27.6535 217.637 28.0527 218.55 28.3135C219.479 28.5742 220.701 28.7046 222.217 28.7046ZM248.687 22.0557V30.8312H246.047V12.0579H248.687V19.3668H251.034V22.0557H248.687ZM242.747 12.6446V17.3868C242.747 19.8964 242.348 22.0883 241.55 23.9623C240.767 25.8201 239.635 27.2542 238.152 28.2646C236.669 29.2749 234.917 29.7801 232.896 29.7801V27.1401C235.178 27.1238 236.938 26.2601 238.176 24.549C239.431 22.8216 240.058 20.4423 240.058 17.4112V15.1868H232.896V12.6446H242.747Z" fill="white" fill-opacity="0.2"/>
<path d="M34.1428 35.0001H39.3955V10.9158C39.396 10.546 39.3235 10.1797 39.1822 9.83793C39.0408 9.49614 38.8334 9.18553 38.5717 8.92387C38.31 8.6622 37.9993 8.45462 37.6572 8.31298C37.3151 8.17135 36.9484 8.09845 36.5781 8.09845H31.3254V32.1868C31.3264 32.9326 31.6236 33.6476 32.1517 34.175C32.6799 34.7023 33.3959 34.9991 34.1428 35.0001Z" fill="white" fill-opacity="0.2"/>
<path d="M107.02 8.09845V32.1868C107.021 32.9312 107.318 33.645 107.844 34.1722C108.37 34.6993 109.084 34.997 109.83 35.0001H115.091V10.9158C115.091 10.5457 115.018 10.1791 114.877 9.83702C114.735 9.49497 114.527 9.18418 114.265 8.92246C114.003 8.66074 113.692 8.45324 113.35 8.31184C113.007 8.17045 112.64 8.09793 112.269 8.09845H107.02Z" fill="white" fill-opacity="0.2"/>
<path d="M17.1908 10.4111L10.7124 19.3956H8.08204V10.9158C8.08257 10.5457 8.00995 10.1791 7.86835 9.83702C7.72675 9.49497 7.51895 9.18418 7.25686 8.92246C6.99476 8.66074 6.68353 8.45324 6.34099 8.31184C5.99846 8.17045 5.63134 8.09793 5.26069 8.09845H0V35.0001H5.26069C6.00827 35.0001 6.72529 34.7039 7.25428 34.1764C7.78327 33.6489 8.08099 32.9333 8.08204 32.1868V23.703H10.7124L17.1908 32.6875C17.7064 33.4026 18.3847 33.9852 19.17 34.3873C19.9552 34.7893 20.8249 34.9994 21.7073 35.0001H27.3421L17.6444 21.5493L27.3421 8.09845H21.7073C20.8249 8.09919 19.9552 8.30924 19.17 8.71132C18.3847 9.1134 17.7064 9.69599 17.1908 10.4111Z" fill="white" fill-opacity="0.2"/>
<path d="M101.473 11.8655C100.734 10.7819 99.756 9.88154 98.6145 9.23342C97.473 8.58531 96.1981 8.2066 94.8874 8.12627V8.09845H79.4913C78.576 8.0995 77.6984 8.46336 77.0515 9.11008C76.4046 9.75681 76.0413 10.6335 76.0413 11.5476V34.9922H80.6732C81.5886 34.9911 82.4661 34.6273 83.113 33.9805C83.7599 33.3338 84.1233 32.4571 84.1233 31.543V25.3163H94.8994V25.2885C96.4167 25.194 97.882 24.6998 99.146 23.8563C100.41 23.0128 101.428 21.85 102.096 20.4862C102.764 19.1224 103.058 17.6062 102.949 16.092C102.839 14.5778 102.33 13.1195 101.473 11.8655ZM84.1233 21.5493V11.8655H90.0485C91.3105 11.9016 92.5086 12.4275 93.3884 13.3316C94.2683 14.2357 94.7604 15.4467 94.7604 16.7074C94.7604 17.968 94.2683 19.179 93.3884 20.0831C92.5086 20.9872 91.3105 21.5132 90.0485 21.5493H84.1233Z" fill="white" fill-opacity="0.2"/>
<path d="M42.0975 35.0001L53.4107 10.7052C53.7731 9.92669 54.3506 9.26778 55.0754 8.80598C55.8001 8.34418 56.6418 8.0987 57.5015 8.09845H62.7065L51.3932 32.3934C51.0308 33.1719 50.4533 33.8308 49.7286 34.2926C49.0039 34.7544 48.1621 34.9999 47.3025 35.0001H42.0975Z" fill="white" fill-opacity="0.2"/>
<path d="M62.9253 18.7995H57.7243L64.0674 32.3934C64.4298 33.1718 65.0073 33.8307 65.732 34.2926C66.4567 34.7544 67.2984 34.9998 68.1581 35.0001H73.3631L67.036 21.4062C66.6718 20.6249 66.0911 19.9642 65.3626 19.5023C64.6341 19.0403 63.7883 18.7964 62.9253 18.7995Z" fill="white" fill-opacity="0.2"/>
<path d="M65.2612 2.60684L62.7025 8.09844H67.9074C68.7671 8.09819 69.6089 7.85272 70.3336 7.39091C71.0583 6.92911 71.6358 6.2702 71.9982 5.49172L74.5609 0.000122846H69.3559C68.4955 -0.000381226 67.6529 0.244735 66.9275 0.706582C66.202 1.16843 65.6238 1.82775 65.2612 2.60684Z" fill="white" fill-opacity="0.2"/>
</g>
<defs>
<clipPath id="clip0_5417_1600">
<rect width="252" height="35" fill="white"/>
</clipPath>
</defs>
</svg>
