<svg width="252" height="35" viewBox="0 0 252 35" fill="none" xmlns="http://www.w3.org/2000/svg">
<g clip-path="url(#clip0_5367_257)">
<path d="M145.624 30.8311H142.984V12.0578H145.624V30.8311ZM136.971 12.5711C136.971 15.26 136.735 17.8022 136.262 20.1978L141.86 28.1667L139.709 29.78L135.358 23.4244C134.657 25.4126 133.761 26.9607 132.669 28.0689C131.593 29.1607 130.363 29.7393 128.978 29.8044V26.9689C130.053 26.8059 130.982 26.0807 131.764 24.7933C132.563 23.4896 133.174 21.7704 133.598 19.6356C134.038 17.5007 134.266 15.1133 134.282 12.4733L136.971 12.5711ZM148.066 15.5533V13.4511H152.809V11.7156H155.497V13.4511H160.24V15.5533H148.066ZM165.104 23.2044H162.464V19.9289H160.02V17.4844H162.464V12.0578H165.104V23.2044ZM154.153 23.1556C152.637 23.1556 151.374 22.8541 150.364 22.2511C149.37 21.6481 148.873 20.817 148.873 19.7578C148.873 18.6985 149.37 17.8593 150.364 17.24C151.374 16.6207 152.637 16.3111 154.153 16.3111C155.669 16.3111 156.923 16.6207 157.917 17.24C158.928 17.8593 159.433 18.6985 159.433 19.7578C159.433 20.817 158.928 21.6481 157.917 22.2511C156.923 22.8541 155.669 23.1556 154.153 23.1556ZM154.153 18.3156C153.306 18.3156 152.629 18.4541 152.124 18.7311C151.635 18.9919 151.391 19.3341 151.391 19.7578C151.391 20.1652 151.635 20.5074 152.124 20.7844C152.629 21.0452 153.306 21.1756 154.153 21.1756C155 21.1756 155.677 21.0452 156.182 20.7844C156.687 20.5074 156.94 20.1652 156.94 19.7578C156.94 19.3341 156.687 18.9919 156.182 18.7311C155.677 18.4541 155 18.3156 154.153 18.3156ZM165.055 24.1089V30.6844H149.606V24.1089H165.055ZM162.44 28.5089V26.2844H152.222V28.5089H162.44ZM170.113 23.3022C169.575 23.3022 169.127 23.1311 168.768 22.7889C168.426 22.4304 168.255 21.9741 168.255 21.42C168.255 20.8822 168.426 20.4422 168.768 20.1C169.127 19.7578 169.575 19.5867 170.113 19.5867C170.65 19.5867 171.09 19.7578 171.433 20.1C171.791 20.4422 171.97 20.8822 171.97 21.42C171.97 21.9741 171.791 22.4304 171.433 22.7889C171.09 23.1311 170.65 23.3022 170.113 23.3022ZM188.488 25.9911V12.0578H191.128V25.9911H188.488ZM180.031 12.18C181.171 12.18 182.174 12.4163 183.037 12.8889C183.917 13.3452 184.594 13.997 185.066 14.8444C185.539 15.6756 185.775 16.6289 185.775 17.7044C185.775 18.78 185.539 19.7415 185.066 20.5889C184.594 21.42 183.917 22.0719 183.037 22.5444C182.174 23.0007 181.171 23.2289 180.031 23.2289C178.89 23.2289 177.879 23.0007 176.999 22.5444C176.136 22.0719 175.468 21.42 174.995 20.5889C174.522 19.7415 174.286 18.78 174.286 17.7044C174.286 16.6289 174.522 15.6756 174.995 14.8444C175.468 13.997 176.136 13.3452 176.999 12.8889C177.879 12.4163 178.89 12.18 180.031 12.18ZM180.031 14.5267C179.118 14.5267 178.376 14.8119 177.806 15.3822C177.236 15.9363 176.951 16.7104 176.951 17.7044C176.951 18.6985 177.236 19.4807 177.806 20.0511C178.376 20.6215 179.118 20.9067 180.031 20.9067C180.959 20.9067 181.709 20.6215 182.279 20.0511C182.85 19.4807 183.135 18.6985 183.135 17.7044C183.135 16.7104 182.85 15.9363 182.279 15.3822C181.709 14.8119 180.959 14.5267 180.031 14.5267ZM191.519 28.1911V30.6844H175.875V24.3778H178.564V28.1911H191.519ZM202.101 17.1178C201.205 17.7859 200.081 18.3074 198.728 18.6822C197.392 19.0407 195.974 19.2363 194.475 19.2689V17.0689C195.974 17.0363 197.375 16.7837 198.679 16.3111C199.999 15.8222 200.855 15.1785 201.246 14.38H194.719V12.2044H210.364V14.38H204.155C204.138 14.7059 204.032 15.0319 203.837 15.3578L210.828 17.2156L210.192 19.3422L202.101 17.1178ZM211.488 22.6178H193.57V20.4422H211.488V22.6178ZM202.541 23.9378C204.986 23.9378 206.925 24.2148 208.359 24.7689C209.793 25.3067 210.51 26.1948 210.51 27.4333C210.51 28.6719 209.785 29.5681 208.335 30.1222C206.901 30.6763 204.969 30.9533 202.541 30.9533C200.113 30.9533 198.174 30.6763 196.724 30.1222C195.289 29.5681 194.572 28.6719 194.572 27.4333C194.572 26.1948 195.289 25.3067 196.724 24.7689C198.158 24.2148 200.097 23.9378 202.541 23.9378ZM202.541 28.8267C204.073 28.8267 205.312 28.7207 206.257 28.5089C207.202 28.2807 207.675 27.9222 207.675 27.4333C207.675 26.9444 207.202 26.5941 206.257 26.3822C205.328 26.1704 204.089 26.0644 202.541 26.0644C199.103 26.0644 197.384 26.5207 197.384 27.4333C197.384 27.9222 197.856 28.2807 198.801 28.5089C199.747 28.7207 200.993 28.8267 202.541 28.8267ZM225.125 20.1489V17.9H227.35V16.14H225.125V13.8911H227.35V12.0578H229.965V22.8622H227.35V20.1489H225.125ZM224.857 21.5667C224.351 21.7622 223.642 21.917 222.73 22.0311C221.817 22.1289 220.799 22.1778 219.674 22.1778H213.074V19.9533H214.908V14.6733H213.148V12.4244H224.49V14.6733H222.681V19.8311C223.496 19.7496 224.221 19.5948 224.857 19.3667V21.5667ZM220.163 19.9289V14.6733H217.45V19.9533H218.452L220.163 19.9289ZM222.217 23.3267C224.596 23.3267 226.502 23.6363 227.937 24.2556C229.387 24.8585 230.112 25.8119 230.112 27.1156C230.112 28.4356 229.395 29.397 227.961 30C226.527 30.6193 224.612 30.9289 222.217 30.9289C219.837 30.9289 217.931 30.6193 216.497 30C215.062 29.397 214.345 28.4356 214.345 27.1156C214.345 25.8119 215.062 24.8585 216.497 24.2556C217.931 23.6363 219.837 23.3267 222.217 23.3267ZM222.217 28.7044C223.748 28.7044 224.971 28.5741 225.883 28.3133C226.812 28.0526 227.277 27.6533 227.277 27.1156C227.277 26.5941 226.812 26.203 225.883 25.9422C224.954 25.6815 223.732 25.5511 222.217 25.5511C220.717 25.5511 219.503 25.6815 218.574 25.9422C217.645 26.203 217.181 26.5941 217.181 27.1156C217.181 27.6533 217.637 28.0526 218.55 28.3133C219.479 28.5741 220.701 28.7044 222.217 28.7044ZM248.687 22.0556V30.8311H246.047V12.0578H248.687V19.3667H251.034V22.0556H248.687ZM242.747 12.6444V17.3867C242.747 19.8963 242.348 22.0881 241.55 23.9622C240.767 25.82 239.635 27.2541 238.152 28.2644C236.669 29.2748 234.917 29.78 232.896 29.78V27.14C235.178 27.1237 236.938 26.26 238.176 24.5489C239.431 22.8215 240.058 20.4422 240.058 17.4111V15.1867H232.896V12.6444H242.747Z" fill="#004071"/>
<path d="M34.1428 34.9999H39.3955V10.9156C39.396 10.5458 39.3235 10.1795 39.1822 9.83775C39.0408 9.49596 38.8334 9.18535 38.5717 8.92368C38.31 8.66202 37.9993 8.45443 37.6572 8.3128C37.3151 8.17117 36.9484 8.09827 36.5781 8.09827H31.3254V32.1866C31.3264 32.9324 31.6236 33.6474 32.1517 34.1748C32.6799 34.7022 33.3959 34.9989 34.1428 34.9999Z" fill="#004071"/>
<path d="M107.02 8.09827V32.1866C107.021 32.9311 107.318 33.6448 107.844 34.172C108.37 34.6991 109.084 34.9968 109.83 35H115.091V10.9156C115.091 10.5455 115.018 10.1789 114.877 9.83683C114.735 9.49478 114.527 9.184 114.265 8.92228C114.003 8.66056 113.692 8.45306 113.349 8.31166C113.007 8.17026 112.64 8.09775 112.269 8.09827H107.02Z" fill="#004071"/>
<path d="M17.1908 10.4109L10.7124 19.3954H8.08204V10.9156C8.08257 10.5455 8.00995 10.1789 7.86835 9.83683C7.72675 9.49478 7.51895 9.184 7.25686 8.92228C6.99476 8.66056 6.68353 8.45306 6.34099 8.31166C5.99846 8.17026 5.63134 8.09775 5.26069 8.09827H0V35H5.26069C6.00827 35 6.72529 34.7037 7.25428 34.1762C7.78327 33.6487 8.08099 32.9331 8.08204 32.1866V23.7028H10.7124L17.1908 32.6873C17.7064 33.4024 18.3847 33.985 19.17 34.3871C19.9552 34.7892 20.8249 34.9992 21.7073 35H27.3421L17.6444 21.5491L27.3421 8.09827H21.7073C20.8249 8.099 19.9552 8.30906 19.17 8.71114C18.3847 9.11321 17.7064 9.69581 17.1908 10.4109Z" fill="#004071"/>
<path d="M101.473 11.8653C100.734 10.7817 99.7559 9.88135 98.6144 9.23324C97.4729 8.58513 96.198 8.20641 94.8874 8.12608V8.09827H79.4913C78.5759 8.09932 77.6984 8.46318 77.0515 9.1099C76.4046 9.75662 76.0412 10.6333 76.0412 11.5474V34.992H80.6732C81.5886 34.9909 82.4661 34.6271 83.113 33.9804C83.7599 33.3336 84.1233 32.4569 84.1233 31.5429V25.3161H94.8993V25.2883C96.4167 25.1938 97.8819 24.6997 99.146 23.8561C100.41 23.0126 101.428 21.8498 102.096 20.486C102.764 19.1222 103.058 17.606 102.949 16.0918C102.839 14.5776 102.33 13.1193 101.473 11.8653ZM84.1233 21.5491V11.8653H90.0485C91.3105 11.9014 92.5086 12.4274 93.3884 13.3315C94.2682 14.2356 94.7604 15.4465 94.7604 16.7072C94.7604 17.9679 94.2682 19.1789 93.3884 20.0829C92.5086 20.987 91.3105 21.513 90.0485 21.5491H84.1233Z" fill="#004071"/>
<path d="M42.0975 34.9999L53.4107 10.705C53.7731 9.92651 54.3506 9.2676 55.0754 8.80579C55.8001 8.34399 56.6418 8.09852 57.5015 8.09827H62.7065L51.3932 32.3932C51.0308 33.1717 50.4533 33.8306 49.7286 34.2924C49.0039 34.7542 48.1621 34.9997 47.3025 34.9999H42.0975Z" fill="#004071"/>
<path d="M62.9253 18.7993H57.7243L64.0674 32.3932C64.4298 33.1717 65.0073 33.8306 65.732 34.2924C66.4567 34.7542 67.2984 34.9997 68.1581 35H73.3631L67.036 21.4061C66.6718 20.6248 66.0911 19.9641 65.3626 19.5021C64.6341 19.0402 63.7883 18.7963 62.9253 18.7993Z" fill="#004071"/>
<path d="M65.2612 2.60672L62.7025 8.09832H67.9075C68.7672 8.09807 69.6089 7.85259 70.3336 7.39079C71.0583 6.92899 71.6358 6.27008 71.9982 5.4916L74.5609 7.75889e-07H69.3559C68.4956 -0.000503297 67.653 0.244613 66.9275 0.70646C66.202 1.16831 65.6239 1.82763 65.2612 2.60672Z" fill="#F7941C"/>
</g>
<defs>
<clipPath id="clip0_5367_257">
<rect width="252" height="35" fill="white"/>
</clipPath>
</defs>
</svg>
